<?xml version="1.0" encoding="utf-8"?>
<!-- Generator: Adobe Adobe Illustrator 24.2.0, SVG Export Plug-In . SVG Version: 6.00 Build 0)  -->
<svg version="1.1" id="Layer_1" xmlns="http://www.w3.org/2000/svg" xmlns:xlink="http://www.w3.org/1999/xlink" x="0px" y="0px"
	 width="720px" height="360px" viewBox="0 0 720 360" style="enable-background:new 0 0 720 360;" xml:space="preserve">
<style type="text/css">
	.st0{clip-path:url(#SVGID_2_);}
	.st1{fill:#FB5012;}
	.st2{fill:none;}
</style>
<g>
	<defs>
		<rect id="SVGID_1_" x="-24.19" y="-5.62" width="403" height="373"/>
	</defs>
	<clipPath id="SVGID_2_">
		<use xlink:href="#SVGID_1_"  style="overflow:visible;"/>
	</clipPath>
	<g class="st0">
		<g>
			<path d="M344.24,252.01c-4.98,7.56-10.92,14.04-17.13,20.27c-10.31,10.35-22.12,18.72-35.05,25.39
				c-9.15,4.72-18.76,8.41-28.79,11.05c-13.38,3.52-26.9,5.46-40.71,5c-10.93-0.36-21.66-2.1-32.27-4.89
				c-14.4-3.79-27.78-9.75-40.19-17.88c-13.89-9.09-25.75-20.33-35.67-33.7c-8.3-11.19-14.67-23.36-19.51-36.34
				c-2.25-6.04-3.75-12.35-5.19-18.67c-1.94-8.51-2.84-17.12-3.18-25.78c-0.31-7.93,0.24-15.82,1.25-23.74
				c0.79-6.24,1.98-12.35,3.52-18.4c2.82-11.07,6.94-21.63,12.34-31.73c5.37-10.03,11.68-19.37,19.11-27.96
				c10.41-12.03,22.52-22.04,36.25-30.05c11.29-6.58,23.21-11.55,35.91-14.86c12.33-3.21,24.78-5.09,37.48-4.97
				c12.01,0.11,23.78,1.99,35.46,4.99c12.08,3.1,23.43,7.84,34.1,14.04c13.52,7.86,25.43,17.86,35.58,29.83
				c9.34,11.01,16.74,23.2,22.46,36.51c4.54,10.55,7.74,21.45,9.49,32.73c1.68,10.82,2.39,21.71,1.63,32.74
				c-0.89,12.93-3.21,25.5-7.2,37.79c-2.89,8.9-6.79,17.35-11.33,25.51C350.12,243.37,347.59,247.82,344.24,252.01z M140.61,270.76
				c42.95,36.93,90.97,44.08,141.87,20.51c40.81-18.89,64.85-52.7,74.97-96.88c-6.04-0.49-11.38,0.21-16.67-0.46
				c-0.99-0.12-1.18,0.84-1.24,1.64c-0.25,3.89-1.51,7.51-3,11.05c-6.33,15.05-17.83,24.96-32.16,31.86
				c-9.17,4.42-18.96,6.78-29.02,8.38c-10.07,1.61-20.19,2.34-30.33,2.63c-14.73,0.42-29.31-1.3-43.86-3.78
				c-8.28-1.41-16.39-3.42-24.53-5.32c-9.17-2.14-18.21-4.83-27.07-8.05c-1.89-0.69-3.21-0.22-4.72,1.04
				c-6.31,5.26-12.24,10.99-19.07,15.6c-2.07,1.4-2.2,2.77-0.65,4.77C129.77,259.72,134.81,265.31,140.61,270.76z M227.66,142.54
				c-2.87,4.06-5.74,8.11-8.96,12.67c37.41,5.74,73.4,15.24,109.39,26.06c-0.1-1.3-0.07-2.17-0.24-3
				c-1.41-6.59-4.21-12.64-7.73-18.3c-7.04-11.34-16.1-20.93-26.07-29.77c-11.7-10.37-24.22-19.79-35.56-30.57
				c-1.5-1.42-2.73-3.28-5.11-3.82c-0.58,1.18-1.2,2.27-1.66,3.43c-3.36,8.43-7.5,16.5-12.04,24.33
				C235.99,129.92,231.87,136.02,227.66,142.54z M146.04,159.62c-7.49-0.09-14.83,1.23-22.14,2.6c-6.47,1.21-12.78,3.03-18.3,6.88
				c-4.27,2.98-7.94,8.5-5.77,15.35c2.11,6.66,6.4,11.6,11.41,16.1c8.65,7.76,18.8,13.11,29.18,18.08c2.34,1.12,4.41,1.28,6.55-0.89
				c5.5-5.58,11.28-10.88,16.84-16.39c9.12-9.05,17.76-18.55,26.26-28.18c2.97-3.37,6.12-6.66,8.51-10.82
				c-2.89-0.49-5.53-1.12-8.2-1.37c-6.74-0.62-13.49-1.23-20.24-1.55C162.29,159.05,154.43,158.91,146.04,159.62z M111.11,230.43
				c1.84,4.24,4.09,8.24,6.74,12.39c6.08-5.26,12.28-9.92,18.39-15.75c-12.26-5.24-23.31-11.56-33.76-20.5
				C104.49,215.33,107.21,222.85,111.11,230.43z M254.81,46.73c-0.19-1.55-0.63-3.03-1.29-4.43c-0.69-1.46-1.85-2.22-3.47-2.12
				c-4.49,0.28-11.2,6.57-11.85,11.09c-1.46,10.09,4.47,16.76,10.77,23.79c2.31-4.9,3.45-9.69,4.44-14.44
				C254.31,56.23,255.7,51.82,254.81,46.73z"/>
		</g>
	</g>
</g>
<g>
	<path class="st1" d="M390.81,147.15l12.12-1.06c0.57,4.86,1.91,8.84,4.01,11.96c2.1,3.11,5.35,5.63,9.77,7.55
		c4.42,1.92,9.38,2.88,14.9,2.88c4.9,0,9.23-0.73,12.98-2.19c3.75-1.46,6.55-3.45,8.38-5.99s2.75-5.31,2.75-8.31
		c0-3.05-0.88-5.71-2.65-7.98c-1.77-2.27-4.68-4.18-8.74-5.73c-2.61-1.02-8.37-2.59-17.29-4.74c-8.92-2.14-15.17-4.16-18.74-6.06
		c-4.64-2.43-8.09-5.44-10.37-9.04c-2.27-3.6-3.41-7.63-3.41-12.09c0-4.9,1.39-9.48,4.17-13.74c2.78-4.26,6.84-7.49,12.19-9.7
		c5.34-2.21,11.28-3.31,17.82-3.31c7.2,0,13.54,1.16,19.04,3.48c5.5,2.32,9.73,5.73,12.68,10.23s4.55,9.6,4.77,15.3l-12.32,0.93
		c-0.66-6.14-2.9-10.77-6.72-13.91c-3.82-3.13-9.46-4.7-16.92-4.7c-7.77,0-13.43,1.42-16.99,4.27c-3.55,2.85-5.33,6.28-5.33,10.3
		c0,3.49,1.26,6.36,3.78,8.61c2.47,2.25,8.93,4.56,19.37,6.92c10.44,2.36,17.61,4.43,21.49,6.19c5.65,2.61,9.82,5.91,12.52,9.9
		s4.04,8.6,4.04,13.81c0,5.17-1.48,10.03-4.44,14.6c-2.96,4.57-7.21,8.12-12.75,10.66c-5.54,2.54-11.78,3.81-18.71,3.81
		c-8.79,0-16.15-1.28-22.09-3.84s-10.6-6.41-13.97-11.56C392.77,159.46,390.99,153.64,390.81,147.15z"/>
	<path class="st1" d="M525.91,167.11c-4.42,3.75-8.67,6.4-12.75,7.95c-4.08,1.55-8.47,2.32-13.15,2.32
		c-7.73,0-13.67-1.89-17.82-5.66c-4.15-3.78-6.23-8.6-6.23-14.47c0-3.44,0.78-6.59,2.35-9.44c1.57-2.85,3.62-5.13,6.16-6.85
		c2.54-1.72,5.4-3.02,8.58-3.91c2.34-0.62,5.87-1.21,10.6-1.79c9.63-1.15,16.71-2.52,21.26-4.11c0.04-1.63,0.07-2.67,0.07-3.11
		c0-4.86-1.13-8.28-3.38-10.27c-3.05-2.69-7.57-4.04-13.58-4.04c-5.61,0-9.75,0.98-12.42,2.95c-2.67,1.97-4.65,5.44-5.93,10.43
		l-11.66-1.59c1.06-4.99,2.8-9.02,5.23-12.09c2.43-3.07,5.94-5.43,10.53-7.09c4.59-1.66,9.91-2.48,15.96-2.48
		c6,0,10.88,0.71,14.64,2.12c3.75,1.41,6.51,3.19,8.28,5.33c1.77,2.14,3,4.85,3.71,8.11c0.4,2.03,0.6,5.7,0.6,10.99v15.9
		c0,11.08,0.25,18.09,0.76,21.03c0.51,2.94,1.51,5.75,3.01,8.44H528.3C527.06,173.31,526.27,170.42,525.91,167.11z M524.92,140.48
		c-4.33,1.77-10.82,3.27-19.47,4.5c-4.9,0.71-8.37,1.5-10.4,2.38c-2.03,0.88-3.6,2.18-4.7,3.88c-1.1,1.7-1.66,3.59-1.66,5.66
		c0,3.18,1.2,5.83,3.61,7.95c2.41,2.12,5.93,3.18,10.56,3.18c4.59,0,8.68-1,12.25-3.01c3.58-2.01,6.2-4.76,7.88-8.25
		c1.28-2.69,1.92-6.67,1.92-11.92V140.48z"/>
	<path class="st1" d="M548.27,176.58v-70.34h10.66v9.87c2.21-3.44,5.14-6.21,8.81-8.31c3.67-2.1,7.84-3.15,12.52-3.15
		c5.21,0,9.48,1.08,12.82,3.25c3.33,2.16,5.68,5.19,7.05,9.07c5.56-8.21,12.8-12.32,21.72-12.32c6.98,0,12.34,1.93,16.09,5.8
		c3.75,3.86,5.63,9.81,5.63,17.85v48.28h-11.86v-44.31c0-4.77-0.39-8.2-1.16-10.3c-0.77-2.1-2.18-3.79-4.21-5.07
		c-2.03-1.28-4.42-1.92-7.15-1.92c-4.95,0-9.05,1.65-12.32,4.93c-3.27,3.29-4.9,8.56-4.9,15.8v40.87h-11.92v-45.7
		c0-5.3-0.97-9.27-2.91-11.92c-1.94-2.65-5.12-3.97-9.54-3.97c-3.36,0-6.46,0.88-9.31,2.65c-2.85,1.77-4.91,4.35-6.19,7.75
		c-1.28,3.4-1.92,8.3-1.92,14.7v36.49H548.27z"/>
	<path class="st1" d="M360,280.58l37.29-97.1h13.84l39.74,97.1h-14.64l-11.33-29.41h-40.6l-10.66,29.41H360z M388.02,240.71h32.92
		l-10.13-26.89c-3.09-8.17-5.39-14.88-6.89-20.13c-1.24,6.23-2.98,12.41-5.23,18.54L388.02,240.71z"/>
	<path class="st1" d="M470.61,280.58h-11.06v-97.1h11.92v34.64c5.03-6.31,11.46-9.47,19.27-9.47c4.33,0,8.42,0.87,12.29,2.62
		c3.86,1.75,7.04,4.2,9.54,7.35c2.49,3.16,4.45,6.97,5.86,11.42c1.41,4.46,2.12,9.23,2.12,14.31c0,12.05-2.98,21.37-8.94,27.95
		c-5.96,6.58-13.11,9.87-21.46,9.87c-8.3,0-14.81-3.47-19.54-10.4V280.58z M470.48,244.88c0,8.43,1.15,14.53,3.44,18.28
		c3.75,6.14,8.83,9.21,15.23,9.21c5.21,0,9.71-2.26,13.51-6.79c3.8-4.53,5.7-11.27,5.7-20.23c0-9.18-1.82-15.96-5.46-20.33
		c-3.64-4.37-8.05-6.56-13.21-6.56c-5.21,0-9.71,2.26-13.51,6.79C472.37,229.77,470.48,236.32,470.48,244.88z"/>
	<path class="st1" d="M583.2,257.93l12.32,1.52c-1.94,7.2-5.54,12.78-10.8,16.76c-5.26,3.97-11.97,5.96-20.13,5.96
		c-10.29,0-18.45-3.17-24.47-9.5c-6.03-6.33-9.04-15.22-9.04-26.66c0-11.83,3.05-21.02,9.14-27.55c6.09-6.53,14-9.8,23.71-9.8
		c9.4,0,17.09,3.2,23.05,9.6s8.94,15.41,8.94,27.02c0,0.71-0.02,1.77-0.07,3.18H543.4c0.44,7.73,2.63,13.64,6.56,17.75
		c3.93,4.11,8.83,6.16,14.7,6.16c4.37,0,8.1-1.15,11.19-3.44C578.94,266.63,581.39,262.96,583.2,257.93z M544.06,238.66h39.28
		c-0.53-5.92-2.03-10.35-4.5-13.31c-3.8-4.59-8.72-6.89-14.77-6.89c-5.48,0-10.08,1.83-13.81,5.5
		C546.52,227.62,544.46,232.52,544.06,238.66z"/>
	<path class="st1" d="M610.23,280.58v-97.1h11.92v97.1H610.23z"/>
	<path class="st1" d="M688.78,257.93l12.32,1.52c-1.94,7.2-5.54,12.78-10.8,16.76c-5.25,3.97-11.97,5.96-20.13,5.96
		c-10.29,0-18.45-3.17-24.47-9.5c-6.03-6.33-9.04-15.22-9.04-26.66c0-11.83,3.05-21.02,9.14-27.55c6.09-6.53,14-9.8,23.71-9.8
		c9.41,0,17.09,3.2,23.05,9.6s8.94,15.41,8.94,27.02c0,0.71-0.02,1.77-0.07,3.18h-52.46c0.44,7.73,2.63,13.64,6.56,17.75
		c3.93,4.11,8.83,6.16,14.7,6.16c4.37,0,8.1-1.15,11.19-3.44C684.52,266.63,686.97,262.96,688.78,257.93z M649.63,238.66h39.28
		c-0.53-5.92-2.03-10.35-4.5-13.31c-3.8-4.59-8.72-6.89-14.77-6.89c-5.48,0-10.08,1.83-13.81,5.5
		C652.09,227.62,650.03,232.52,649.63,238.66z"/>
</g>
<rect x="584.46" y="229.48" class="st2" width="0" height="0"/>
</svg>
